# xmcd
#
# Track frame offsets:
# 150
# 34306
# 64426
# 90865
# 113074
# 136460
# 158608
# 178416
# 201755
# 230206
# 253920
# 282158
# 307894
# 331571
#
# Disc length: 4745 seconds
#
#
# Revision: 0
# Processed by: cddbd v1.5.2PL0 Copyright (c) Steve Scherf et al.
# Submitted via: FreeRIP 2.945 
#
DISCID=c512870e
DTITLE=Herriot-J1972 - Great-Small12
DYEAR=1972
DGENRE=Jungle
TTITLE0=GS 1201
TTITLE1=GS 1202
TTITLE2=GS 1203
TTITLE3=GS 1204
TTITLE4=GS 1205
TTITLE5=GS 1206
TTITLE6=GS 1207
TTITLE7=GS 1208
TTITLE8=GS 1209
TTITLE9=GS 1210
TTITLE10=GS 1211
TTITLE11=GS 1212
TTITLE12=GS 1213
TTITLE13=GS 1214
EXTD=All Creatures Great and Small 12 CDs\nby James Harriot read by ChristopherTimothy\nAudio Renassance - Jungle - Country
EXTT0=
EXTT1=
EXTT2=
EXTT3=
EXTT4=
EXTT5=
EXTT6=
EXTT7=
EXTT8=
EXTT9=
EXTT10=
EXTT11=
EXTT12=
EXTT13=
PLAYORDER=
